<svg width="800" height="800" viewBox="0 0 24 24" fill="none" xmlns="http://www.w3.org/2000/svg"><path d="M11 18a1 1 0 1 0 2 0h-2Zm1-5h1a1 1 0 0 0-.293-.707L12 13ZM8.5 9.5l-.659-.753a1 1 0 0 0-.048 1.46L8.5 9.5Zm4-3.5.76-.65a1 1 0 0 0-1.418-.103L12.5 6Zm6 5a1 1 0 1 0 0-2v2ZM8 17a3 3 0 0 1-3 3v2a5 5 0 0 0 5-5H8Zm-3 3a3 3 0 0 1-3-3H0a5 5 0 0 0 5 5v-2Zm-3-3a3 3 0 0 1 3-3v-2a5 5 0 0 0-5 5h2Zm3-3a3 3 0 0 1 3 3h2a5 5 0 0 0-5-5v2Zm8 4v-5h-2v5h2Zm-.293-5.707-3.5-3.5-1.414 1.414 3.5 3.5 1.414-1.414Zm-3.549-2.04 4-3.5-1.316-1.506-4 3.5 1.317 1.506Zm2.583-3.602c.513.6 1.462 1.656 2.612 2.57C15.467 10.105 16.945 11 18.5 11V9c-.845 0-1.867-.522-2.903-1.345-1-.795-1.851-1.738-2.338-2.306l-1.518 1.302ZM22 17a3 3 0 0 1-3 3v2a5 5 0 0 0 5-5h-2Zm-3 3a3 3 0 0 1-3-3h-2a5 5 0 0 0 5 5v-2Zm-3-3a3 3 0 0 1 3-3v-2a5 5 0 0 0-5 5h2Zm3-3a3 3 0 0 1 3 3h2a5 5 0 0 0-5-5v2ZM16 3v2a2 2 0 0 0 2-2h-2Zm0 0h-2a2 2 0 0 0 2 2V3Zm0 0V1a2 2 0 0 0-2 2h2Zm0 0h2a2 2 0 0 0-2-2v2Z" fill="#000"/></svg>