<?xml version="1.0" standalone="no"?>
<!DOCTYPE svg PUBLIC "-//W3C//DTD SVG 20010904//EN"
 "http://www.w3.org/TR/2001/REC-SVG-20010904/DTD/svg10.dtd">
<svg version="1.0" xmlns="http://www.w3.org/2000/svg"
 width="1024.000000pt" height="1024.000000pt" viewBox="0 0 1024.000000 1024.000000"
 preserveAspectRatio="xMidYMid meet">
<metadata>
Created by potrace 1.16, written by Peter Selinger 2001-2019
</metadata>
<g transform="translate(0.000000,1024.000000) scale(0.100000,-0.100000)"
fill="#000000" stroke="none">
<path d="M5145 7221 c-121 -55 -154 -219 -57 -287 31 -21 37 -90 22 -234 -7
-69 -13 -179 -13 -246 l-1 -120 -52 1 c-69 3 -132 40 -173 102 -33 49 -36 60
-22 82 9 15 7 17 65 -77 26 -41 98 -102 120 -102 6 0 2 6 -9 12 -40 22 -97 84
-122 133 -31 61 -36 65 -96 65 -75 0 -134 -19 -162 -52 -21 -24 -24 -38 -23
-96 1 -58 5 -73 31 -109 27 -39 29 -47 23 -95 -21 -152 -25 -221 -19 -304 8
-121 -2 -195 -32 -236 -41 -55 -65 -93 -65 -100 0 -14 33 -8 77 13 32 16 55
39 93 96 57 85 61 113 35 236 -9 40 -18 81 -20 91 -7 32 13 4 23 -34 8 -27 9
-13 5 58 -5 80 -4 95 12 112 26 28 51 25 97 -12 22 -18 66 -46 97 -63 l56 -30
6 -110 c7 -130 24 -174 104 -281 84 -112 261 -256 354 -289 21 -7 52 -20 68
-29 41 -21 319 -94 431 -113 102 -17 110 -15 138 39 15 29 11 68 -6 68 -5 0
-7 8 -4 18 5 14 3 14 -10 -2 -9 -11 -16 -15 -16 -9 0 5 10 18 22 29 12 10 18
13 14 7 -4 -7 -2 -13 3 -13 6 0 11 4 11 9 0 20 -34 33 -132 50 -353 63 -571
171 -704 348 -95 126 -104 216 -28 283 68 59 69 59 364 13 145 -23 172 -30
222 -60 31 -18 97 -54 146 -79 l89 -45 31 -96 c17 -54 30 -99 28 -100 -1 -2
-44 53 -96 122 -126 170 -151 190 -79 65 23 -39 70 -102 105 -140 76 -84 87
-103 109 -205 19 -88 93 -287 130 -351 14 -23 45 -65 69 -94 40 -46 44 -56 39
-88 -4 -20 -23 -68 -44 -107 -20 -38 -42 -87 -49 -107 -6 -21 -13 -38 -15 -38
-1 0 -19 7 -39 15 -53 22 -215 62 -356 86 -180 32 -493 32 -665 0 -401 -74
-705 -199 -992 -407 -200 -146 -356 -302 -512 -514 -161 -217 -308 -527 -376
-789 -68 -261 -97 -558 -77 -768 57 -581 285 -1068 701 -1497 296 -304 731
-543 1141 -626 83 -17 62 -17 -1030 -24 -1202 -8 -1514 -16 -1533 -36 -10 -10
14 -11 118 -6 72 3 706 8 1410 11 1626 7 2325 16 2135 27 -74 5 -166 6 -204 3
-39 -3 -68 -4 -65 -1 2 2 45 12 94 21 136 25 409 118 538 184 414 209 739 526
985 957 217 381 340 914 303 1314 -30 326 -118 624 -268 910 -130 249 -219
367 -447 596 -177 177 -213 207 -383 317 l-101 65 -76 -150 c-42 -83 -108
-205 -146 -273 -39 -67 -70 -126 -70 -131 1 -5 10 8 21 29 11 20 24 37 30 37
24 0 319 -233 394 -311 131 -136 210 -239 199 -258 -10 -16 -219 -159 -462
-314 -75 -48 -185 -119 -244 -157 -107 -69 -199 -120 -217 -120 -5 0 -12 16
-15 35 -7 36 -26 58 -26 30 0 -9 -5 -13 -11 -9 -6 3 -8 17 -4 31 5 21 3 24
-17 21 -15 -2 -29 -16 -41 -40 -10 -21 -22 -38 -26 -38 -3 0 -13 11 -22 26
l-15 25 -38 -83 c-89 -194 -120 -258 -122 -255 -10 10 145 356 186 417 9 14
20 43 23 65 4 22 20 67 36 100 16 33 51 114 76 180 26 66 66 163 90 215 23 52
59 136 80 185 55 130 204 455 225 490 36 61 111 266 131 355 20 94 19 121 -9
153 -22 24 -10 21 50 -14 56 -33 108 -77 108 -92 0 -5 -18 -34 -40 -64 -44
-62 -54 -91 -15 -45 58 70 126 67 209 -9 56 -51 321 -334 434 -464 98 -112
303 -346 492 -561 397 -453 562 -643 655 -755 44 -52 115 -135 158 -184 43
-49 74 -91 68 -93 -6 -2 -11 -10 -11 -18 0 -8 -5 -14 -11 -14 -5 0 -8 -4 -4
-9 3 -6 -4 -15 -16 -21 -14 -8 -19 -18 -16 -32 4 -14 0 -22 -12 -25 -13 -3
-17 -11 -13 -30 3 -17 -1 -29 -12 -35 -11 -6 -14 -17 -10 -33 4 -18 1 -27 -10
-31 -13 -5 -15 -17 -12 -55 3 -30 1 -49 -6 -49 -6 0 -8 -10 -4 -24 3 -14 1
-28 -4 -31 -7 -4 -7 -11 -2 -18 5 -7 8 -36 6 -64 -1 -31 2 -51 7 -47 6 3 7 -5
3 -20 -4 -17 -2 -26 6 -26 8 0 10 -9 6 -24 -3 -14 -1 -28 5 -32 6 -3 9 -15 6
-25 -3 -10 0 -20 6 -22 9 -3 11 -12 16 -60 1 -5 5 -6 10 -2 9 5 17 -10 23 -40
1 -5 8 -16 15 -24 8 -7 12 -20 9 -28 -3 -8 2 -17 12 -20 23 -9 41 -34 35 -50
-3 -8 2 -13 14 -13 15 0 62 -40 55 -47 -9 -12 2 -22 20 -20 17 1 24 -4 26 -21
2 -12 9 -22 15 -21 21 4 47 -13 47 -28 0 -9 6 -13 14 -10 7 3 24 -2 37 -11 13
-9 32 -15 41 -14 9 2 21 -6 27 -17 7 -12 18 -17 30 -14 10 3 22 0 25 -6 4 -6
18 -8 32 -5 13 3 30 1 38 -5 7 -6 21 -9 30 -5 9 3 16 2 16 -3 0 -9 178 -9 275
1 28 2 80 7 117 11 37 4 79 10 94 14 25 6 26 8 10 24 -13 13 -22 14 -43 6 -39
-15 -55 6 -24 32 13 11 30 18 37 15 7 -3 15 2 18 10 3 9 10 12 16 9 5 -3 10 1
10 9 0 8 10 16 23 18 14 2 27 15 36 36 8 18 22 32 32 32 22 0 44 26 29 35 -5
3 -10 11 -10 16 0 6 4 8 8 5 15 -9 80 53 102 99 21 44 40 59 40 31 0 -7 21
-58 46 -112 26 -54 52 -116 60 -136 l13 -37 -57 -6 c-31 -3 -105 -15 -163 -26
-58 -10 -118 -19 -133 -19 -21 0 -27 -4 -24 -17 2 -11 12 -18 23 -17 49 3 185
29 185 36 0 4 6 5 13 2 14 -5 120 10 148 21 13 5 21 -4 34 -38 9 -24 30 -64
46 -88 l29 -44 0 197 0 198 -48 118 c-27 65 -52 131 -56 146 -10 40 10 23 24
-20 16 -49 69 -164 75 -164 3 0 5 421 5 936 l-1 937 -23 -22 c-71 -67 -231
-501 -252 -682 -7 -61 -13 -69 -34 -44 -10 12 -10 27 1 75 7 33 17 60 21 60 5
0 6 11 2 25 -4 15 3 54 14 93 12 37 30 121 42 186 12 66 30 146 41 178 10 31
19 69 19 83 0 13 13 67 30 118 27 86 63 247 57 254 -2 1 -20 -61 -41 -140 -55
-204 -78 -261 -105 -265 l-23 -4 20 29 c21 29 67 211 122 483 17 85 48 218 68
295 l37 140 3 416 2 415 -112 17 c-62 9 -214 30 -338 47 -423 57 -675 92 -835
116 -88 14 -223 33 -300 43 -77 11 -252 35 -390 55 -137 20 -349 49 -470 66
-236 33 -447 71 -427 78 6 2 74 -6 149 -17 76 -12 287 -39 468 -61 182 -22
548 -72 815 -110 267 -38 559 -79 650 -90 137 -17 522 -74 736 -108 l52 -9 0
46 1 46 -20 -37 c-16 -32 -23 -37 -47 -33 -61 11 -381 58 -777 115 -552 79
-862 125 -971 144 -49 9 -224 36 -389 61 -165 25 -336 52 -380 60 -44 7 -156
26 -248 40 -195 31 -230 41 -292 88 -25 19 -62 37 -84 41 -47 7 -65 26 -25 26
23 0 25 2 14 15 -17 20 2 90 27 99 22 9 23 6 13 -39 -5 -22 -9 -53 -9 -70 1
-24 3 -22 10 14 10 51 24 71 50 71 11 0 19 7 19 15 0 8 -6 15 -14 15 -8 0 -17
8 -21 19 -3 10 -13 22 -23 27 -17 9 -16 14 4 94 14 55 24 79 29 68 10 -25 2
-73 -12 -70 -15 2 -17 -14 -3 -23 6 -3 10 -21 10 -38 0 -18 5 -39 11 -47 7
-11 9 3 7 50 -3 64 -3 65 25 68 31 4 38 35 10 51 -14 7 -15 12 -4 24 11 14 6
20 -30 46 -44 32 -85 47 -162 57 -38 6 -48 3 -63 -15 -10 -11 -26 -21 -35 -21
-10 0 -106 20 -216 45 -109 25 -200 45 -201 45 -2 0 16 19 40 43 47 46 64 90
48 129 -8 21 -9 21 -10 3 l-1 -20 -9 20 c-12 28 -12 37 2 29 7 -4 8 -3 4 5
-12 19 -27 1 -20 -25 4 -14 2 -24 -4 -24 -6 0 -11 8 -11 18 -2 46 -4 52 -18
41 -7 -6 -14 -23 -14 -38 -1 -25 -2 -25 -9 4 -6 22 -8 25 -10 10 -2 -17 -3
-17 -10 5 -7 22 -8 22 -10 5 -2 -12 -5 -6 -10 15 -7 31 -7 32 -9 8 0 -16 -5
-28 -9 -28 -4 0 -7 17 -6 38 2 21 0 27 -3 12 -8 -43 -21 -44 -13 -1 4 22 3 38
-1 35 -5 -3 -9 -16 -9 -29 0 -17 -5 -22 -17 -20 -10 2 -23 4 -29 4 -9 1 -9 13
-2 43 5 23 11 44 12 46 7 6 86 -30 86 -40 0 -5 4 -7 8 -4 5 3 19 -2 31 -11 16
-11 20 -18 12 -26 -6 -6 -11 -15 -11 -21 0 -5 6 -2 13 9 9 11 19 15 28 11 41
-22 -45 40 -96 68 -77 44 -195 81 -343 107 -64 11 -132 29 -152 38 -24 12 -71
20 -145 25 -101 6 -136 11 -205 30 l-25 7 25 -15 c33 -20 9 -20 -57 -1 -95 28
-163 101 -197 213 -9 27 9 30 37 5 19 -17 20 -17 9 3 -23 44 -118 57 -187 25z
m280 -556 c105 -45 108 -49 94 -111 -14 -62 -1 -134 41 -222 16 -34 25 -62 20
-62 -4 0 -44 7 -87 15 -43 8 -118 18 -167 22 l-88 6 6 41 c4 29 3 37 -4 26 -7
-12 -10 -8 -10 15 0 17 -7 55 -15 85 -14 52 -21 139 -10 129 2 -3 11 -41 20
-84 8 -43 16 -79 18 -81 1 -2 1 53 -1 121 -4 115 -3 126 18 160 l23 36 32 -31
c17 -17 67 -46 110 -65z m565 5 c146 -19 172 -41 63 -53 -28 -3 -69 -15 -91
-26 -38 -19 -106 -92 -131 -139 -12 -22 -11 -23 8 -12 20 10 21 8 21 -55 0
-36 -2 -65 -4 -65 -3 0 -17 23 -32 50 -15 28 -31 50 -35 50 -16 0 -38 57 -44
116 l-7 59 47 34 c72 52 91 55 205 41z m-58 -179 c-5 -51 22 -107 64 -134 19
-12 34 -24 34 -27 0 -3 -20 -28 -44 -55 -39 -44 -45 -48 -60 -36 -30 25 -46
68 -54 147 -8 76 -8 78 21 111 16 18 32 33 36 33 4 0 5 -18 3 -39z m398 -263
c74 -16 158 -36 185 -44 28 -8 93 -21 145 -30 52 -8 109 -23 125 -33 34 -20
36 -35 14 -120 l-14 -53 -75 7 c-119 11 -226 30 -359 64 -187 49 -194 53 -205
156 -4 33 -9 68 -12 77 -6 21 -10 21 196 -24z m737 -309 c15 -5 44 -26 64 -45
19 -19 66 -48 105 -64 80 -34 80 -34 -47 -16 -131 19 -209 61 -209 113 0 19 5
23 29 23 16 0 42 -5 58 -11z m-804 -119 c91 -35 129 -43 248 -55 78 -8 144
-16 147 -19 6 -7 -96 -377 -108 -389 -9 -10 -187 146 -266 234 -43 48 -72 92
-92 142 -31 73 -48 127 -40 127 2 0 53 -18 111 -40z m230 -470 c26 -14 47 -32
47 -41 0 -19 -64 -231 -75 -249 -8 -13 -83 89 -125 170 -39 76 -95 224 -109
290 -7 30 -15 62 -17 70 -2 8 49 -37 114 -100 65 -63 139 -126 165 -140z
m1312 220 c88 -10 219 -24 290 -30 150 -12 236 -22 505 -55 107 -13 272 -33
365 -45 94 -11 197 -25 230 -30 33 -5 159 -20 280 -35 239 -27 446 -66 511
-95 55 -24 120 -84 147 -134 36 -69 30 -159 -36 -491 -124 -635 -152 -764
-177 -815 -10 -19 -23 -61 -30 -92 -13 -59 -24 -67 -59 -48 -17 9 -17 13 0
113 9 58 22 120 27 139 6 22 6 41 1 49 -5 8 -7 40 -3 73 6 56 -1 75 -28 76 -9
0 -34 -79 -63 -205 -47 -203 -55 -225 -83 -225 -51 0 -165 66 -225 129 -31 34
-53 61 -48 61 10 0 12 50 2 50 -3 0 -16 3 -28 6 -18 5 -25 0 -37 -31 -9 -21
-16 -57 -16 -81 0 -37 6 -49 48 -95 26 -29 57 -53 68 -54 11 0 36 -12 55 -25
l34 -24 -33 38 c-18 20 -59 60 -92 87 -33 27 -60 54 -60 60 0 9 60 -39 199
-160 113 -99 140 -154 107 -219 -8 -16 -24 -58 -36 -95 -12 -37 -26 -67 -31
-67 -4 0 -6 -7 -3 -15 8 -19 -9 -19 -49 0 -54 25 -149 55 -174 55 -21 0 -24
-4 -21 -27 4 -37 48 -65 166 -104 53 -17 106 -40 118 -50 40 -36 46 -27 74
113 17 86 100 322 116 331 8 4 14 18 14 29 0 12 3 19 6 16 10 -10 -8 -98 -22
-113 -16 -16 -19 -49 -4 -40 20 12 3 -91 -41 -250 -25 -91 -48 -130 -84 -139
-29 -7 -24 -36 6 -36 12 0 19 -7 19 -19 0 -31 -30 -192 -47 -254 l-16 -58 -46
7 c-25 4 -47 10 -49 15 -2 4 -30 6 -63 3 -40 -3 -59 -1 -59 7 0 8 -4 8 -13 1
-7 -6 -26 -9 -42 -7 -17 1 -36 -2 -42 -7 -9 -7 -13 -7 -13 0 0 8 -9 8 -31 0
-16 -6 -33 -8 -36 -5 -3 3 -12 -1 -21 -9 -9 -10 -24 -13 -41 -9 -20 4 -22 3
-11 -5 13 -9 13 -10 0 -10 -26 0 -58 28 -113 99 -72 95 -311 373 -477 555
-106 117 -110 123 -52 78 30 -23 57 -42 62 -42 13 0 150 -138 190 -192 40 -53
98 -98 126 -98 19 0 173 141 192 176 11 21 6 35 -42 136 -51 108 -100 244
-125 353 -15 66 -42 96 -120 140 -49 27 -74 35 -103 33 l-38 -3 45 -55 c73
-88 59 -126 -67 -185 l-82 -39 -54 60 c-29 32 -83 97 -119 144 -76 97 -130
157 -155 171 -19 10 -48 2 -48 -14 0 -5 32 -52 70 -104 l71 -93 -31 -7 -32 -6
22 -21 c16 -15 24 -17 27 -8 11 29 34 10 104 -90 22 -32 35 -58 30 -58 -25 0
-59 25 -90 66 -43 57 -53 50 -12 -10 17 -24 31 -51 31 -58 0 -16 47 -62 73
-71 16 -6 25 -47 9 -47 -4 0 -91 93 -192 207 -175 196 -275 304 -239 259 9
-12 56 -66 105 -122 97 -110 203 -236 346 -415 51 -64 147 -176 213 -249 242
-267 367 -409 462 -525 32 -38 85 -100 118 -137 64 -71 180 -224 191 -251 5
-13 0 -17 -18 -17 -34 0 -56 19 -139 117 -40 48 -103 120 -139 158 -36 39
-112 126 -170 194 -211 249 -307 359 -450 514 -80 87 -163 179 -185 204 -782
904 -1082 1241 -1226 1380 -112 108 -157 176 -199 300 -35 106 -37 135 -11
227 16 59 27 77 77 127 53 53 105 81 122 65 3 -4 -8 -35 -25 -69 -17 -34 -33
-78 -37 -97 -7 -31 -5 -30 17 15 41 87 145 157 255 175 74 12 257 4 457 -20z
m-1053 -1233 c186 -119 442 -357 578 -539 191 -255 313 -538 392 -913 20 -97
23 -136 22 -340 0 -219 -2 -237 -32 -383 -31 -146 -135 -486 -152 -497 -5 -3
4 30 20 72 46 128 98 320 121 448 26 149 36 420 20 564 -31 282 -142 608 -298
873 -57 98 -215 299 -309 393 -146 146 -320 286 -426 341 -27 13 -48 29 -48
34 0 17 12 11 112 -53z m-902 -38 c143 -14 140 -13 142 -62 l1 -42 4 38 c4 39
4 39 41 32 75 -13 73 -6 33 -108 -20 -50 -54 -149 -75 -220 -22 -70 -41 -125
-43 -123 -3 2 2 26 10 54 9 28 18 111 20 188 l6 139 -9 -120 c-13 -160 -22
-205 -69 -331 -22 -58 -38 -110 -35 -115 3 -5 1 -9 -5 -9 -6 0 -7 -7 -4 -17 4
-10 2 -14 -4 -10 -14 9 -25 -20 -18 -47 4 -14 3 -17 -3 -8 -6 9 -12 1 -21 -29
-7 -22 -36 -93 -65 -157 -29 -65 -64 -147 -77 -184 -13 -38 -27 -68 -31 -68
-5 0 -11 0 -15 0 -5 0 -13 113 -20 252 l-11 253 4 -252 4 -251 -27 -6 c-16 -3
-59 -11 -98 -17 -39 -6 -101 -26 -140 -46 l-70 -34 -30 34 c-16 18 -39 44 -50
58 -11 14 -41 49 -66 79 -25 30 -90 116 -144 190 -55 74 -133 178 -175 231
-94 120 -223 296 -239 327 -10 18 -10 26 0 38 39 47 428 268 444 252 4 -4 24
-55 45 -115 21 -59 70 -200 110 -313 64 -182 137 -411 185 -584 9 -32 18 -56
20 -54 14 13 -146 521 -278 883 -30 83 -58 160 -61 172 -6 20 -1 24 58 42 96
30 268 61 374 68 l92 6 1 -69 c1 -38 5 -127 9 -199 8 -121 8 -116 5 67 -1 108
0 200 3 203 7 6 98 1 272 -16z m-1696 -196 c-146 -143 -189 -195 -289 -343
-246 -366 -376 -791 -377 -1230 -1 -172 13 -272 67 -495 103 -427 275 -729
599 -1050 185 -183 353 -307 538 -397 70 -34 126 -64 124 -66 -2 -1 -56 22
-120 52 -328 155 -649 442 -883 791 -142 212 -237 451 -305 766 -33 153 -33
156 -32 414 l0 260 37 160 c67 299 168 534 343 797 92 139 126 180 255 309 82
82 152 149 156 149 4 0 -47 -53 -113 -117z m3164 -78 c239 -270 373 -509 480
-865 78 -257 106 -483 91 -731 -8 -131 -56 -417 -79 -469 l-10 -25 4 26 c42
216 68 551 55 709 -40 480 -246 975 -553 1325 -34 39 -75 88 -91 110 -16 22
-33 42 -37 43 -5 2 -13 13 -20 25 -19 37 64 -41 160 -148z m-2682 -222 c54
-76 116 -163 139 -193 23 -30 100 -132 171 -226 71 -93 170 -219 219 -278 50
-59 91 -111 93 -115 1 -4 -8 -13 -22 -19 -13 -6 -39 -32 -57 -58 -17 -26 -41
-56 -52 -67 -19 -19 -87 -156 -87 -176 0 -17 -16 -13 -79 18 -32 17 -96 42
-142 56 -46 15 -127 41 -179 60 -52 18 -133 45 -180 59 -46 15 -136 49 -200
76 -63 27 -137 56 -165 65 -87 30 -145 57 -145 70 0 41 109 267 203 420 6 11
13 22 14 23 4 9 253 -162 428 -293 105 -78 231 -169 280 -201 50 -32 117 -78
150 -102 62 -46 95 -66 95 -58 0 6 -151 116 -324 236 -81 57 -185 132 -230
168 -44 35 -150 110 -233 165 -84 55 -153 104 -153 109 0 19 166 216 258 306
52 50 96 92 97 92 2 0 47 -62 101 -137z m4248 23 c9 -19 16 -58 16 -88 0 -87
52 -244 115 -350 l34 -57 -39 -33 c-85 -74 -124 -102 -117 -86 4 11 -7 36 -28
68 -19 27 -51 73 -70 100 -19 28 -37 66 -40 84 -10 52 13 185 42 245 15 31 29
61 31 66 3 6 -25 -18 -61 -52 -36 -35 -71 -63 -78 -63 -8 0 -2 7 11 16 14 9
52 42 84 73 32 31 55 49 50 41 -7 -13 -6 -13 9 -1 20 16 22 43 5 74 -10 19 -9
21 4 9 9 -7 23 -28 32 -46z m-4764 -348 c-57 -95 -150 -292 -170 -358 -48
-165 -99 -534 -88 -642 2 -18 7 12 11 67 20 279 58 492 87 488 25 -3 229 -78
340 -126 104 -44 337 -124 500 -171 47 -14 119 -41 161 -60 l76 -35 -5 -53
c-2 -29 -11 -58 -19 -64 -8 -7 -10 -14 -5 -15 4 -2 16 -50 25 -106 18 -115 30
-144 93 -224 l43 -56 -22 -20 c-12 -11 -58 -46 -102 -78 -44 -32 -125 -95
-180 -140 -55 -45 -134 -106 -175 -136 -41 -30 -114 -88 -161 -129 -47 -41
-122 -105 -167 -142 -94 -78 -73 -86 -186 80 -75 111 -146 239 -146 264 0 7
19 23 43 35 51 27 264 123 272 123 2 0 116 51 252 114 137 62 292 130 345 151
54 21 96 40 94 42 -7 7 -214 -76 -426 -172 -118 -53 -240 -107 -270 -120 -56
-23 -133 -57 -230 -102 -30 -14 -63 -33 -72 -41 -16 -13 -19 -11 -39 34 -37
88 -88 280 -104 399 -9 64 -15 118 -13 120 2 2 118 13 258 25 140 11 305 26
365 34 61 8 160 17 220 20 151 9 247 17 242 22 -7 7 -330 -15 -522 -36 -268
-28 -465 -43 -524 -39 l-54 4 6 -76 c29 -368 218 -773 497 -1063 160 -166 276
-255 460 -354 72 -38 242 -112 258 -112 8 1 -112 58 -168 80 -19 8 -51 24 -70
36 -19 12 -66 38 -103 58 l-68 37 32 57 c18 31 85 136 149 232 65 96 170 258
235 359 65 100 134 205 154 231 20 27 41 57 47 66 9 16 15 16 42 6 18 -7 46
-17 63 -24 l32 -11 -6 -63 c-3 -34 -25 -130 -48 -214 -22 -83 -39 -153 -37
-156 6 -6 87 286 98 352 11 65 14 71 33 56 8 -7 45 -13 82 -14 l68 -3 -7 -505
c-3 -278 -9 -540 -13 -584 l-6 -79 -87 6 c-95 7 -329 52 -343 66 -5 5 11 85
37 187 59 238 59 235 44 199 -7 -16 -33 -109 -58 -205 -44 -171 -46 -175 -70
-172 -14 2 -22 1 -19 -2 9 -10 142 -45 244 -66 50 -10 77 -19 60 -19 -90 -2
-420 94 -575 168 -310 147 -603 432 -799 777 -85 149 -165 369 -191 528 -64
375 4 796 184 1138 34 66 111 178 122 178 3 0 -9 -24 -26 -52z m3052 -125 c89
-173 132 -278 125 -304 -3 -11 -1 -17 3 -14 23 14 71 -261 77 -442 l6 -153
-159 0 c-87 0 -231 7 -319 15 -88 8 -178 14 -200 13 -24 0 -10 -4 35 -8 228
-23 331 -30 478 -30 191 0 175 21 136 -180 -25 -132 -109 -410 -124 -410 -4 0
-56 24 -116 53 -215 106 -874 407 -891 407 -3 0 -21 11 -40 26 -36 27 -44 54
-15 54 10 0 30 13 45 28 l27 28 -9 104 c-4 59 -4 113 1 123 5 11 5 17 -2 17
-5 0 -10 14 -10 30 0 30 -1 30 -55 30 -42 0 -55 3 -55 15 0 8 -4 15 -10 15
-16 0 1 29 21 35 10 4 18 11 16 17 -1 6 4 13 11 15 23 9 12 -28 -13 -39 -14
-6 -25 -15 -25 -20 0 -14 24 -8 48 12 20 17 22 22 11 42 -22 42 -31 51 -40 36
-7 -10 -9 -9 -9 3 0 19 23 41 70 64 118 59 818 515 859 559 17 17 28 23 36 16
6 -5 45 -76 87 -157z m3030 -165 c-17 -51 -35 -120 -41 -153 -24 -124 -51
-436 -52 -590 -1 -96 -4 -150 -9 -135 -4 14 -8 95 -9 180 -1 171 34 487 68
617 20 77 62 185 69 179 2 -2 -10 -46 -26 -98z m-4930 -448 c61 -36 68 -44 68
-72 l0 -31 -52 6 c-55 6 -55 6 30 -19 24 -7 12 -21 -15 -18 -25 3 -24 3 4 -6
41 -13 50 -28 21 -34 -13 -2 -67 -13 -121 -23 l-98 -19 6 45 c7 55 66 211 79
211 6 0 40 -18 78 -40z m44 -198 c6 -4 14 -22 17 -40 6 -28 2 -38 -21 -60 -15
-15 -37 -32 -47 -39 -11 -6 -15 -12 -9 -12 6 -1 30 13 52 29 37 27 42 35 44
73 1 35 2 31 9 -23 4 -36 10 -77 14 -91 l7 -27 -100 -4 c-63 -2 -106 -9 -116
-17 -13 -11 -17 -10 -26 13 -16 42 -32 158 -23 167 5 5 47 15 93 23 47 8 87
14 90 15 3 0 10 -3 16 -7z m765 -221 c-30 -78 -45 -111 -54 -111 -21 0 -187
125 -187 140 0 9 66 15 187 17 l72 0 -18 -46z m2832 -10 c42 -47 60 -78 52
-91 -3 -6 1 -10 9 -10 21 0 20 -34 -1 -55 -25 -26 -136 -17 -165 13 -21 20
-21 25 -10 78 14 67 35 104 61 104 10 0 35 -18 54 -39z m-2608 -59 c28 -11
133 -59 235 -107 102 -48 205 -95 230 -105 48 -19 460 -220 460 -224 0 -9
-171 -293 -213 -356 -28 -41 -90 -114 -137 -161 -85 -85 -269 -239 -286 -239
-8 0 -54 67 -174 250 -20 30 -81 132 -134 225 -91 157 -189 315 -272 440 -19
28 -34 53 -34 56 0 9 91 99 100 99 4 0 36 -26 71 -58 35 -32 112 -99 170 -148
59 -49 194 -166 300 -259 238 -209 269 -235 308 -258 49 -29 36 -12 -30 38
-33 25 -172 143 -308 263 -137 119 -310 270 -385 336 -75 65 -136 120 -136
122 0 2 14 10 30 19 34 18 37 31 13 57 -14 15 -14 19 -3 16 8 -2 18 -7 22 -12
3 -5 9 11 13 37 l7 46 52 -29 c28 -16 74 -37 101 -48z m-845 41 c0 -25 -40
-112 -63 -134 -7 -8 -21 -26 -31 -41 -10 -16 -22 -28 -26 -28 -9 0 -100 92
-100 102 0 15 80 60 96 54 10 -4 14 -2 11 6 -2 7 3 25 11 40 13 22 22 26 59
25 38 0 43 -3 43 -24z m463 -39 l88 -67 -33 -28 c-62 -55 -60 -56 -108 39 -78
151 -75 153 53 56z m-124 16 c37 -67 63 -152 49 -162 -9 -5 -7 -8 6 -8 19 0
19 18 1 75 -3 11 3 4 14 -15 26 -46 26 -61 -4 -83 -28 -20 -101 -48 -108 -41
-2 2 -10 -2 -17 -11 -7 -8 -23 -15 -35 -15 -24 0 -34 31 -36 120 0 25 -5 56
-9 70 -4 14 -5 -26 -2 -87 5 -108 4 -113 -15 -113 -42 0 -141 22 -210 46 l-72
26 40 51 c21 29 39 57 39 62 0 6 9 28 20 50 29 58 21 14 -26 -134 -4 -16 -4
-22 3 -18 6 4 16 28 23 54 7 27 22 72 32 101 l20 52 27 -23 c16 -13 43 -29 60
-37 29 -12 34 -11 56 10 l25 23 1 -99 c1 -123 14 -168 22 -74 3 36 6 89 5 118
0 42 4 58 23 78 31 33 42 30 68 -16z m-597 -195 c10 -13 37 -30 59 -36 21 -7
39 -18 39 -26 0 -7 -4 -13 -8 -13 -4 0 -68 -93 -142 -206 -333 -508 -482 -729
-494 -732 -25 -6 -356 306 -356 336 0 5 24 30 53 53 28 24 95 81 147 128 52
46 129 109 170 139 41 31 136 103 210 162 182 144 283 219 294 220 4 0 17 -11
28 -25z m792 -88 c56 -79 149 -232 263 -432 63 -110 159 -266 214 -347 54 -81
99 -152 99 -158 0 -25 -228 -146 -355 -188 -33 -11 -67 -23 -77 -27 -13 -5
-20 5 -36 47 -31 84 -69 248 -102 443 -17 99 -46 259 -65 355 -19 96 -38 201
-41 233 -7 57 -6 59 27 87 19 16 36 29 39 29 3 0 18 -19 34 -42z m-109 -107
c4 -30 20 -116 36 -190 15 -74 44 -232 64 -350 20 -118 52 -276 71 -350 48
-179 48 -171 -6 -187 -75 -22 -209 -43 -323 -49 l-107 -7 6 584 c4 321 8 585
9 587 2 2 30 5 62 7 33 2 84 12 114 22 63 21 62 21 74 -67z m3178 17 c-3 -70
-25 -138 -57 -170 -16 -16 -19 -16 -55 3 -44 22 -88 70 -97 105 -11 46 0 69
50 103 44 29 56 33 105 30 l56 -3 -2 -68z m537 -66 c0 -5 -6 -11 -12 -14 -7
-2 7 -10 32 -16 127 -34 139 -49 88 -113 -81 -102 -148 -74 -148 63 0 40 -3
49 -17 49 -13 0 -9 6 12 20 33 22 45 25 45 11z m-220 -78 c56 -89 63 -150 17
-174 -39 -22 -143 -14 -202 16 -60 29 -67 40 -54 87 24 86 64 114 167 117 40
1 44 -2 72 -46z"/>
<path d="M9832 6888 c-39 -7 -57 -16 -69 -35 -16 -25 -16 -26 6 -44 40 -32
170 -58 298 -59 44 0 79 -7 118 -24 l55 -25 0 34 c0 30 -4 36 -27 41 -48 10
-49 12 -10 13 34 1 37 3 37 30 0 28 -1 28 -82 38 l-83 10 83 2 c45 0 82 5 82
9 0 10 -185 23 -290 21 -36 -1 -89 -6 -118 -11z"/>
</g>
</svg>
